<svg xmlns="http://www.w3.org/2000/svg" width="344.538" height="65.067"><path fill="#fff" d="M-3.987-6.698h351.515v88.377H-3.987z"/><path d="M3.342 3.007h364v59h-364z" fill="#fff"/><path d="M28.342 62.007v-59m63 59v-59m63 59v-59m62 59v-59m63 59v-59m63 59v-59" paint-order="fill stroke markers" stroke-miterlimit="10" fill="none" stroke="#e5e5e5"/><path d="M28.445 3.007v59M3.342 36.716h364" stroke-miterlimit="10" fill="none" stroke="#000" paint-order="fill stroke markers"/><path d="M3.342 42.579l.031-.07.032-.06.031-.052.032-.047.03-.04.032-.035.032-.03.031-.027.031-.024.032-.022.031-.016.032-.026.03-.027.032-.026.032-.024.031-.024.031-.025.032-.024.031-.023.032-.02.031-.021.031-.022.032-.024.031-.02.031-.021.032-.017.031-.022.032-.02.031-.022.031-.023.032-.022.031-.02.032-.02.03-.02.032-.02.032-.02.031-.02.031-.016.032-.015.031-.018.032-.018.03-.017.032-.018.032-.016.031-.017.031-.014.032-.02.031-.018.032-.018.031-.017.031-.017.032-.015.031-.02.031-.018.032-.017.031-.018.032-.016.031-.017.031-.018.032-.018.031-.015.031-.017.032-.017.031-.015.032-.017.031-.017.031-.017.032-.014.031-.014.032-.018.03-.018.032-.014.032-.017.031-.016.031-.014.032-.017.031-.015.032-.014.03-.016.032-.015.032-.012.031-.016.031-.016.032-.014.031-.016.032-.014.031-.014.031-.014.032-.017.031-.017.031-.014.032-.012.031-.015.032-.016.031-.014.031-.016.032-.012.031-.014.032-.014.03-.012.032-.013.032-.014.031-.011.031-.013.032-.013.031-.013.032-.012.03-.013.032-.013.032-.014.031-.012.031-.013.032-.015.031-.013.032-.015.031-.014.031-.012.032-.016.031-.011.031-.013.032-.012.031-.011.032-.013.031-.012.031-.011.032-.01.031-.014.032-.013.03-.013.032-.016.032-.011.031-.013.031-.014.032-.012.031-.015.032-.011.03-.014.032-.013.032-.011.031-.011.031-.011.032-.012.031-.013.032-.01.031-.014.031-.01.032-.012.031-.012.031-.011.032-.012.031-.01.032-.01.031-.01.031-.01.032-.008.031-.01.032-.012.03-.012.032-.012.032-.01.031-.014.031-.012.032-.014.031-.012.032-.01.031-.01.031-.012.032-.012.031-.012.031-.01.032-.01.031-.012.032-.01.031-.01.031-.01.032-.013.031-.013.032-.013.03-.011.032-.014.032-.01.031-.013.031-.01.032-.008.031-.008.032-.01.03-.01.032-.01.032-.011.031-.01.031-.01.032-.006.031-.01.032-.01.031-.01.031-.01.032-.011.031-.01.031-.01.032-.011.031-.008.032-.01.031-.007.031-.01.032-.01.031-.01.032-.01.03-.011.032-.01.032-.01.031-.007.031-.008.032-.008.031-.008.032-.01.031-.01.031-.008.032-.01.031-.008.031-.01.032-.01.031-.01.032-.01.031-.01.031-.008.032-.012.031-.007.032-.008.03-.01.032-.006.032-.007.031-.008.031-.006.032-.01.031-.01.032-.01.03-.01.032-.01.032-.012.031-.01.031-.01.032-.01.031-.01.032-.01.031-.012.031-.01.032-.008.031-.011.031-.01.032-.005.031-.01.032-.008.031-.006.031-.008.032-.01.031-.005.032-.008.03-.008.032-.01.032-.006.031-.008.031-.01.032-.007.031-.01.032-.01.031-.01.031-.01.032-.01.031-.006.031-.008.032-.011.031-.007.032-.008.031-.01.031-.01.032-.007.031-.01.032-.006.03-.01.032-.008.032-.01.031-.008.031-.008.032-.01.031-.012.032-.008.03-.008.032-.007.032-.007.031-.008.031-.01.032-.004.031-.008.032-.007.031-.007.031-.005.032-.007.031-.008.031-.01.032-.007.031-.007.032-.008.031-.01.031-.01.032-.01.031-.007.032-.006.03-.006.032-.008.032-.008.031-.008.031-.006.032-.01.031-.003.032-.005.031-.005.031-.01.032-.004.031-.005.031-.005.032-.005.031-.008.032-.008.031-.007.031-.007.032-.01.031-.005.032-.01.03-.01.032-.01.032-.01.031-.01.031-.005.032-.005.031-.011.032-.01.03-.007.032-.006.032-.006.031-.006.031-.006.032-.01.031-.007.032-.006.031-.008.031-.008.032-.005.031-.007.031-.004.032-.008.031-.007.032-.005.031-.005.031-.006.032-.008.031-.003.032-.007.03-.007.032-.006.032-.01.031-.007.031-.005.032-.01.031-.004.032-.007.031-.01.031-.006.032-.006.031-.008.031-.01.032-.006.031-.006.032-.007.031-.007.031-.006.032-.007.031-.012.032-.006.03-.01.032-.008.032-.003.031-.005.031-.006.032-.006.031-.004.032-.007.03-.006.032-.004.032-.007.031-.007.031-.007.032-.006.031-.007.032-.007.031-.007.031-.008.032-.01.031-.007.031-.01.032-.003.031-.005.032-.005.031-.004.031-.007.032-.002.031-.006.032-.007.03-.005.032-.005.032-.007.031-.003.031-.003.032-.007.031-.006.032-.005.031-.006.031-.006.032-.006.031-.006.031-.005.032-.007.031-.006.032-.006.031-.008.031-.006.032-.01.031-.01.032-.005.03-.006.032-.005.032-.004.031-.006.031-.007.032-.004.031-.006.032-.005.03-.004.032-.007.032-.006.031-.004.031-.006.032-.003.031-.005.032-.005.031-.006.031-.005.032-.005.031-.006.031-.003.032-.005.031-.006.032-.006.031-.005.031-.005.032-.008.031-.004.032-.005.03-.006.032-.005.032-.005.031-.005.031-.005.032-.006.031-.005.032-.007.031-.004.031-.008.032-.006.031-.006.031-.008.032-.008.031-.007.032-.005.031-.006.031-.007.032-.003.031-.006.032-.003.03-.006.032-.004.032-.005.031-.006.031-.004.032-.004.031-.004.032-.003.03-.006.032-.004.032-.006.031-.006.031-.007.032-.005.031-.007.032-.006.031-.006.031-.005.032-.008.031-.003.031-.007.032-.004.031-.007.032-.005.031-.002.031-.003.032-.003.031-.003.032-.006.03-.004.032-.004.032-.007.031-.007.031-.008.032-.007.031-.007.032-.008.031-.007.031-.006.032-.001.031-.005.031-.007.032-.003.031-.003.032-.005.031-.003.031-.003.032-.004.031-.005.032-.006.03-.005.032-.005.032-.004.031-.006.031-.004.032-.008.031-.004.032-.004.03-.004.032-.001.032-.007.031-.007.031-.001.032-.005.031-.005.032-.004.031-.004.031-.005.032-.005.031-.004.031-.003.032-.002.031-.003.032-.004.031-.006.031-.005.032-.004.031-.006.032-.004.03-.005.032-.006.032-.003.031-.002.031-.007.032-.006.031-.005.032-.006.031-.004.031-.002.032-.002.031-.002.031-.003.032-.004.031-.006.032-.004.031-.002.031-.004.032-.005.031-.003.032-.005.03-.004.032-.005.032-.004.031-.01.031-.006.032-.006.031-.004.032-.004.03-.005.032-.005.032-.003.031-.007.031-.006.032-.005h.031l.032-.005.031-.004.031-.002.032-.005.031-.004.031-.004.032-.004.031-.003.032-.006.031-.004.031-.004.032-.004.031-.007.032-.006.03-.005.032-.005.032-.004.031-.004.031-.002.032-.005.031-.003.032-.005.031-.005.031-.007.032-.004.031-.005.031-.005.032-.005.031-.003.032-.005.031-.005.031-.003.032-.005.031-.002h.032l.03-.004.032-.002.032-.004.031-.005.031-.005.032-.004.031-.006.032-.006.03-.004.032-.005.032-.006.031-.006.031-.004.032-.003.031-.005.032-.004h.031l.031-.004h.063l.031-.003.032-.004.031-.005.032-.001.031-.004.031-.007.032-.003.031-.003.032-.006.03-.006.032-.003.032-.004.031-.003.031-.005.032-.004.031-.004h.032l.031-.004h.031l.032-.002.031-.005.031-.005.032-.006.031-.004.032-.005.031-.006.031-.002.032-.004.031-.005.032-.004.03-.004.032-.002.032-.004.031-.002.031-.003.032-.002.031-.004.032-.004.03-.003.032-.003.032-.005.031-.002.031-.005h.032l.031-.003.032-.004.031-.006.031-.004.032-.002.031-.005.031-.005.032-.002.031-.007.032-.003.031-.002.031-.004.032-.005.031-.005.032-.004.03-.004.032-.004.032-.004.031-.003h.031l.032-.005.031-.006.032-.005h.031l.031-.002.032-.004.031-.003.031-.004.032-.003h.063l.031-.006.031-.004.032-.002.031-.004.032-.004.03-.004.032-.004.032-.004.031-.004.031-.006.032-.004.031-.002.032-.003.03-.005.032-.004.032-.003.031-.002.031-.002.032-.002.031-.004.032-.004.031-.001.031-.002.032-.005h.031l.031-.005.032-.004.031-.004.032-.004.031-.004.031-.004.032-.005.031-.004.032-.005.03-.003.032-.002.032-.003.031-.006.031-.002.032-.007.031-.003.032-.003.031-.004.031-.004h.032l.031-.006.031-.003.032-.004.031-.003.032-.002.031-.003h.031l.032-.002.031-.005.032-.003.03-.003.032-.002.032-.006.031-.004.031-.007.032-.003.031-.002.032-.005.03-.004.032-.002.032-.005.031-.002.031-.001.032-.002h.031l.032-.002h.031l.031-.005.032-.004.031-.002.031-.003.032-.007.031-.007.032-.002.031-.003.031-.003.032-.003.031-.004.032-.002.03-.003.032-.002.032-.003.031-.003.031-.003.032-.002.031-.002.032-.004.031-.005.031-.003.032-.005.031-.004.031-.006.032-.002.031-.005h.032l.031-.002.031-.002.032-.003.031-.004.032-.004.03-.004.032-.005.032-.004.031-.004.031-.003.032-.005.031-.005.032-.003.03-.004.032-.004.032-.004.031-.007.031-.004.032-.003h.031l.032-.004.031-.005.031-.005.032-.003.031-.002.031-.005.032-.002.031-.003.032-.002.031-.003.031-.002.032-.003.031-.002.032-.002.03-.003.032-.004.032-.005.031-.003.031-.003.032-.005.031-.005.032-.004.031-.002.031-.003.032-.005.031-.006h.031l.032-.004.031-.004.032-.004.031-.004.031-.004h.032l.031-.004.032-.006.03-.003.032-.005.032-.003.031-.002.031-.004.032-.002.031-.001.032-.002.03-.002.032-.002.032-.002h.031l.031-.004.032-.006.031-.002.032-.005.031-.004.031-.004.032-.005.031-.006.031-.005.032-.005.031-.003.032-.002.031-.005.031-.003.032-.002.031-.002.032-.001.03-.003.032-.004.032-.003.031-.004.031-.003h.032l.031-.003.032-.005.031-.003.031-.003.032-.004.031-.004.031-.001h.032l.031-.005.032-.004.031-.004.031-.003.032-.003.031-.005.032-.004.03-.004.032-.002.032-.003h.031l.031-.004.032-.007.031-.004.032-.003.03-.005.032-.001.032-.004.031-.002.031-.002.032-.003.031-.003.032-.002.031-.002.031-.001.032-.005.031-.005.031-.003.032-.004.031-.003.032-.004.031-.005.031-.005.032-.003.031-.005.032-.003.03-.004.032-.004.032-.002.031-.003.031-.002.032-.002.031-.003.032-.004.031-.005.031-.004.032-.004.031-.003.031-.005.032-.002.031-.003.032-.007.031-.004.031-.004.032-.003.031-.004.032-.006.03-.004.032-.004.032-.004.031-.003.031-.002.032-.005.031-.004.032-.004.03-.002.032-.005.032-.004.031-.007.031-.004.032-.004.031-.007.032-.004.031-.005.031-.003.032-.005.031-.003h.031l.032-.006.031-.004.032-.003.031-.004.031-.005.032-.004.031-.003.032-.004.03-.005.032-.004.032-.006.031-.004.031-.003.032-.008.031-.004.032-.004.031-.005.031-.005.032-.005.031-.004.031-.01.032-.003.031-.002.032-.007.031-.004.031-.003.032-.004.031-.004.032-.003.03-.005.032-.003.032-.004.031-.004.031-.006.032-.002.031-.004.032-.005.03-.005.032-.006.032-.003.031-.002.031-.004.032-.005.031-.007.032-.006.031-.007.031-.006.032-.007.031-.006.031-.005.032-.005.031-.005.032-.005.031-.005.031-.002.032-.004.031-.003.032-.004.03-.003.032-.003.032-.004.031-.007.031-.006.032-.005.031-.007.032-.004.031-.004.031-.008.032-.006.031-.006.031-.007.032-.006.031-.007.032-.007.031-.005.031-.008.032-.004.031-.007.032-.006.03-.006.032-.006.032-.01.031-.004.031-.006.032-.006.031-.004.032-.007.03-.006.032-.006.032-.005.031-.005.031-.005.032-.005.031-.007.032-.005.031-.005.031-.004.032-.007.031-.004.031-.01.032-.01.031-.007.032-.006.031-.01.031-.005.032-.004.031-.007.032-.005.03-.006.032-.005.032-.005.031-.003.031-.005.032-.008.031-.006.032-.01.031-.008.031-.008.032-.01.031-.01.031-.008.032-.01.031-.007.032-.01.031-.01.031-.005.032-.01.031-.005.032-.008.03-.005.032-.006.032-.006.031-.008.031-.01.032-.008.031-.01.032-.008.03-.008.032-.008.032-.008.031-.01.031-.01.032-.01.031-.01.032-.013.031-.006.031-.008.032-.008.031-.007.031-.007.032-.01.031-.007.032-.008.031-.008.031-.008.032-.01.031-.008.032-.007.03-.008.032-.007.032-.012.031-.012.031-.011.032-.012.031-.012.032-.007.031-.011.031-.01.032-.01.031-.01.031-.01.032-.01.031-.01.032-.01.031-.01.031-.011.032-.007.031-.007.032-.012.03-.01.032-.012.032-.01.031-.012.031-.01.032-.01.031-.011.032-.013.03-.011.032-.012.032-.01.031-.012.031-.016.032-.014.031-.012.032-.012.031-.013.031-.012.032-.015.031-.015.031-.011.032-.012.031-.014.032-.016.031-.014.031-.014.032-.014.031-.011.032-.012.03-.013.032-.015.032-.016.031-.015.031-.017.032-.015.031-.013.032-.016.031-.015.031-.015.032-.01.031-.013.031-.013.032-.016.031-.016.032-.015.031-.014.031-.015.032-.015.031-.018.032-.02.03-.021.032-.02.032-.018.031-.02.031-.017.032-.014.031-.016.032-.014.03-.014.032-.015.032-.017.031-.015.031-.018.032-.014.031-.02.032-.017.031-.02.031-.02.032-.02.031-.022.031-.022.032-.02.031-.02.032-.02.031-.02.031-.014.032-.02.031-.02.032-.022.03-.02.032-.02.032-.02.031-.02.031-.02.032-.024.031-.02.032-.021.031-.021.031-.023.032-.021.031-.022.031-.02.032-.02.031-.022.032-.022.031-.022.031-.023.032-.023.031-.023.032-.022.03-.025.032-.026.032-.025.031-.024.031-.025.032-.028.031-.027.032-.025.03-.026.032-.023.032-.024.031-.026.031-.025.032-.026.031-.025.032-.025.031-.025.031-.026.032-.027.031-.027.031-.03.032-.027.031-.028.032-.027.031-.027.031-.031.032-.03.031-.027.032-.028.03-.028.032-.03.032-.03.031-.031.031-.03.032-.03.031-.03.032-.031.031-.032.031-.03.032-.033.031-.032.031-.033.032-.031.031-.033.032-.03.031-.032.031-.033.032-.032.031-.032.032-.033.03-.033.032-.037.032-.036.031-.031.031-.035.032-.036.031-.035.032-.037.03-.04.032-.037.032-.04.031-.038.031-.038.032-.04.031-.034.032-.04.031-.037.031-.04.032-.036.031-.036.031-.038.032-.038.031-.038.032-.038.031-.04.031-.043.032-.04.031-.045.032-.043.03-.042.032-.043.032-.045.031-.044.031-.043.032-.045.031-.044.032-.042.031-.045.031-.04.032-.043.031-.044.031-.043.032-.046.031-.046.032-.047.031-.047.031-.05.032-.045.031-.048.032-.05.03-.048.032-.05.032-.05.031-.05.031-.047.032-.05.031-.05.032-.047.03-.048.032-.053.032-.05.031-.05.031-.054.032-.052.031-.053.032-.053.031-.055.031-.053.032-.054.031-.054.031-.053.032-.054.031-.053.032-.055.031-.055.031-.055.032-.055.031-.055.032-.057.03-.058.032-.058.032-.06.031-.06.031-.058.032-.058.031-.063.032-.06.031-.057.031-.06.032-.06.031-.06.031-.061.032-.063.031-.063.032-.06.031-.061.031-.062.032-.061.031-.062.032-.063.03-.065.032-.065.032-.067.031-.063.031-.065.032-.067.031-.063.032-.065.03-.067.032-.067.032-.067.031-.065.031-.067.032-.067.031-.067.032-.07.031-.067.031-.07.032-.067.031-.074.031-.072.032-.075.031-.074.032-.071.031-.075.031-.073.032-.074.031-.072.032-.073.03-.073.032-.072.032-.072.031-.073.031-.07.032-.074.031-.073.032-.073.031-.075.031-.077.032-.08.031-.073.031-.082.032-.08.031-.077.032-.08.031-.08.031-.081.032-.077.031-.078.032-.08.03-.077.032-.08.032-.08.031-.076.031-.081.032-.083.031-.084.032-.084.03-.085.032-.082.032-.083.031-.087.031-.084.032-.082.031-.084.032-.081.031-.081.031-.081.032-.083.031-.082.031-.082.032-.085.031-.083.032-.085.031-.086.031-.086.032-.086.031-.087.032-.086.03-.083.032-.087.032-.086.031-.085.031-.085.032-.085.031-.087.032-.088.031-.087.031-.087.032-.087.031-.091.031-.087.032-.09.031-.09.032-.088.031-.086.031-.09.032-.088.031-.086.032-.088.03-.088.032-.09.032-.086.031-.09.031-.087.032-.091.031-.09.032-.09.03-.09.032-.09.032-.09.031-.086.031-.09.032-.088.031-.087.032-.09.031-.09.031-.088.032-.09.031-.09.031-.09.032-.093.031-.09.032-.09.031-.088.031-.09.032-.088.031-.087.032-.087.03-.086.032-.088.032-.086.031-.087.031-.086.032-.087.031-.088.032-.087.031-.087.031-.088.032-.088.031-.085.031-.088.032-.086.031-.084.032-.084.031-.087.031-.084.032-.088.031-.086.032-.087.03-.088.032-.087.032-.09.031-.086.031-.088.032-.086.031-.085.032-.086.03-.085.032-.083.032-.082.031-.084.031-.081.032-.082.031-.081.032-.084.031-.082.031-.085.032-.081.031-.083.031-.083.032-.08.031-.083.032-.08.031-.08.031-.078.032-.077.031-.08.032-.074.03-.075.032-.075.032-.076.031-.076.031-.076.032-.078.031-.078.032-.076.031-.078.031-.075.032-.076.031-.076.031-.073.032-.073.031-.072.032-.07.031-.066.031-.07.032-.068.031-.068.032-.07.03-.07.032-.067.032-.068.031-.071.031-.071.032-.067.031-.067.032-.067.03-.065.032-.065.032-.064.031-.062.031-.062.032-.063.031-.06.032-.061.031-.061.031-.063.032-.062.031-.06.031-.06.032-.057.031-.061.032-.06.031-.055.031-.056.032-.056.031-.054.032-.054.03-.053.032-.053.032-.055.031-.053.031-.053.032-.052.031-.052.032-.052.031-.05.031-.05.032-.048.031-.047.031-.048.032-.046.031-.044.032-.046.031-.045.031-.044.032-.043.031-.045.032-.044.03-.044.032-.043.032-.043.031-.04.031-.043.032-.038.031-.041.032-.038.03-.038.032-.037.032-.035.031-.034.031-.03.032-.032.031-.032.032-.031.031-.032.031-.032.032-.031.031-.032.031-.028.032-.03.031-.032.032-.03.031-.03.031-.028.032-.031.031-.028.032-.03.03-.027.032-.026.032-.024.031-.025.031-.022.032-.024.031-.023.032-.02.031-.02.031-.02.032-.017.031-.016.031-.02.032-.02.031-.02.032-.017.031-.018.031-.017.032-.016.031-.02.032-.015.03-.014.032-.014.032-.014.031-.012.031-.012.032-.01.031-.01.032-.01.03-.007.032-.01.032-.01.031-.011.031-.01.032-.006.031-.007.032-.006.031-.005.031-.005.032-.007.031-.005.031-.005.032-.006.031-.001.032-.001.031-.002.031-.004.032-.003.031-.002.032-.002.03-.003.032-.002.032-.001h.062l.032.004.031.003.032.004.031.004.031.003.032.006.031.006.031.008.032.009.031.006.032.006.031.005.031.007.032.006.031.006.032.006.03.006.032.007.032.01.031.01.031.014.032.01.031.01.032.012.03.013.032.012.032.01.031.014.031.014.032.013.031.015.032.016.031.014.031.015.032.014.031.015.031.016.032.016.031.019.032.016.031.017.031.013.032.016.031.016.032.015.03.015.032.017.032.018.031.018.031.02.032.018.031.02.032.023.031.018.031.02.032.019.031.02.031.018.032.02.031.02.032.02.031.02.031.02.032.023.031.022.032.024.03.023.032.024.032.023.031.029.031.025.032.027.031.023.032.024.03.023.032.022.032.024.031.023.031.024.032.025.031.025.032.025.031.025.031.027.032.027.031.025.031.026.032.026.031.028.032.03.031.024.031.026.032.026.031.027.032.025.03.029.032.027.032.027.031.028.031.028.032.028.031.026.032.028.031.027.031.029.032.025.031.027.031.028.032.03.031.028.032.03.031.029.031.028.032.028.031.03.032.028.03.03.032.03.032.027.031.03.031.029.032.028.031.03.032.029.03.028.032.03.032.03.031.029.031.03.032.028.031.03.032.03.031.03.031.03.032.028.031.03.031.032.032.028.031.03.032.032.031.032.031.03.032.03.031.03.032.029.03.032.032.028.032.027.031.028.031.028.032.03.031.03.032.029.031.028.031.03.032.033.031.028.031.03.032.032.031.03.032.032.031.03.031.03.032.03.031.029.032.03.03.027.032.03.032.03.031.03.031.032.032.03.031.032.032.03.03.034.032.03.032.027.031.03.031.03.032.03.031.029.032.03.031.03.031.03.032.03.031.03.031.03.032.032.031.032.032.033.031.034.031.03.032.03.031.028.032.026.03.026.032.025.032.027.031.027.031.025.032.027.031.026.032.029.031.027.031.026.032.029.031.03.031.03.032.03.031.032.032.03.031.027.031.028.032.03.031.028.032.03.03.029.032.028.032.029.031.027.031.026.032.029.031.028.032.028.03.028.032.029.032.029.031.03.031.026.032.027.031.026.032.028.031.026.031.026.032.023.031.027.031.025.032.024.031.026.032.024.031.026.031.029.032.026.031.028.032.027.03.027.032.028.032.029.031.029.031.027.032.028.031.027.032.026.031.025.031.025.032.026.031.025.031.027.032.026.031.024.032.027.031.025.031.025.032.024.031.025.032.024.03.027.032.025.032.026.031.024.031.024.032.025.031.023.032.024.03.026.032.026.032.027.031.027.031.024.032.024.031.024.032.024.031.025.031.022.032.024.031.024.031.024.032.022.031.024.032.022.031.02.031.025.032.02.031.025.032.025.03.024.032.023.032.023.031.022.031.022.032.022.031.024.032.023.031.024.031.024.032.023.031.02.031.023.032.02.031.02.032.026.031.02.031.023.032.023.031.023.032.024.03.022.032.024.032.024.031.02.031.024.032.022.031.022.032.02.03.02.032.02.032.02.031.02.031.02.032.02.031.02.032.018.031.023.031.023.032.02.031.02.031.024.032.02.031.02.032.02.031.02.031.02.032.02.031.023.032.02.03.022.032.02.032.02.031.02.031.02.032.02.031.022.032.022.031.02.031.017.032.017.031.02.031.018.032.02.031.02.032.017.031.02.031.02.032.018.031.02.032.02.03.018.032.02.032.019.031.018.031.018.032.019.031.016.032.017.03.019.032.02.032.018.031.018.031.018.032.018.031.018.032.02.031.019.031.018.032.02.031.018.031.016.032.019.031.016.032.017.031.018.031.015.032.019.031.02.032.019.03.015.032.016.032.02.031.017.031.016.032.017.031.019.032.016.031.015.031.017.032.015.031.016.031.017.032.014.031.016.032.017.031.017.031.018.032.019.031.015.032.018.03.018.032.018.032.014.031.018.031.018.032.018.031.017.032.018.03.017.032.013.032.015.031.014.031.014.032.017.031.016.032.013.031.017.031.014.032.012.031.016.031.013.032.013.031.015.032.02.031.016.031.017.032.018.031.013.032.013.03.015.032.016.032.017.031.014.031.014.032.016.031.014.032.017.031.01.031.015.032.014.031.014.031.013.032.018.031.016.032.012.031.014.031.01.032.01.031.016.032.016.03.015.032.013.032.013.031.013.031.015.032.012.031.013.032.014.03.017.032.014.032.014.031.016.031.014.032.012.031.013.032.014.031.014.031.012.032.014.031.015.031.012.032.01.031.015.032.013.031.013.031.013.032.014.031.014.032.013.03.013.032.013.032.013.031.013.031.013.032.014.031.013.032.01.031.01.031.013.032.013.031.01.031.014.032.014.031.014.032.012.031.014.031.013.032.013.031.013.032.013.03.014.032.015.032.013.031.01.031.013.032.01.031.01.032.012.03.01.032.012.032.01.031.01.031.01.032.01.031.013.032.012.031.013.031.013.032.01.031.013.031.013.032.014.031.01.032.012.031.01.031.01.032.013.031.012.032.01.03.01.032.012.032.01.031.01.031.013.032.01.031.014.032.013.031.01.031.01.032.009.031.01.031.013.032.009.031.01.032.01.031.01.031.012.032.008.031.01.032.01.03.01.032.008.032.012.031.012.031.013.032.013.031.01.032.01.03.012.032.009.032.013.031.01.031.013.032.013.031.01.032.01.031.01.031.007.032.01.031.007.031.008.032.01.031.01.032.012.031.01.031.01.032.01.031.013.032.01.03.01.032.014.032.01.031.01.031.012.032.009.031.008.032.006.031.008.031.01.032.008.031.008.031.01.032.01.031.01.032.01.031.012.031.013.032.01.031.01.032.01.03.01.032.009.032.01.031.01.031.01.032.008.031.008.032.01.03.008.032.008.032.009.031.008.031.01.032.01.031.009.032.01.031.01.031.01.032.013.031.008.031.01.032.01.031.01.032.008.031.01.031.005.032.01.031.006.032.008.03.008.032.009.032.006.031.01.031.008.032.008.031.01.032.008.031.01.031.01.032.006.031.01.031.01.032.006.031.009.032.009.031.007.031.01.032.008.031.01.032.007.03.009.032.007.032.01.031.009.031.01.032.01.031.01.032.01.03.01.032.009.032.01.031.009.031.007.032.007.031.007.032.007.031.007.031.007.032.006.031.006.031.008.032.006.031.007.032.008.031.008.031.009.032.006.031.006.032.01.03.01.032.01.032.005.031.01.031.009.032.008.031.008.032.01.031.008.031.01.032.008.031.008.031.009.032.01.031.007.032.006.031.005.031.007.032.007.031.012.032.006.03.006.032.004.032.01.031.005.031.008.032.007.031.007.032.007.03.008.032.007.032.008.031.007.031.005.032.004.031.006.032.007.031.008.031.007.032.01.031.005.031.005.032.007.031.008.032.004.031.008.031.006.032.005.031.008.032.007.03.008.032.006.032.008.031.007.031.005.032.009.031.007.032.009.031.009.031.008.032.002.031.005.031.006.032.007.031.004.032.006.031.004.031.008.032.007.031.007.032.009.03.007.032.009.032.006.031.006.031.008.032.008.031.01.032.008.03.009.032.006.032.008.031.006.031.008.032.005.031.005.032.006.031.008.031.004.032.006.031.007.031.004.032.005.031.006.032.005.031.005.031.008.032.006.031.008.032.004.03.004.032.006.032.006.031.007.031.005.032.008.031.007.032.006.031.006.031.007.032.006.031.006.031.01.032.007.031.005.032.007.031.008.031.006.032.007.031.006.032.007.03.008.032.005.032.006.031.005.031.005.032.005.031.006.032.004.03.004.032.003.032.006.031.005.031.003.032.006.031.007.032.005.031.006.031.007.032.007.031.005.031.007.032.006.031.006.032.007.031.006.031.006.032.005.031.005.032.005.03.005.032.008.032.007.031.006.031.005.032.003.031.006.032.005.031.007.031.005.032.006.031.007.031.007.032.006.031.007.032.006.031.005.031.008.032.006.031.005.032.006.03.006.032.004.032.002.031.004.031.005.032.006.031.006.032.004.03.007.032.006.032.006.031.008.031.007.032.006.031.005.032.005.031.006.031.003.032.005.031.005.031.003.032.004.031.005.032.004.031.005.031.006.032.007.031.006.032.006.03.003.032.007.032.007.031.007.031.006.032.005.031.006.032.005.031.006.031.004.032.002.031.003.031.005.032.004.031.004.032.005.031.005.031.004.032.003.031.007.032.007.03.008.032.005.032.005.031.005.031.005.032.004.031.004.032.004.03.005.032.004.032.005.031.008.031.004.032.004.031.004.032.005.031.003.031.006.032.008.031.005.031.004.032.003.031.005.032.005.031.002.031.004.032.005.031.005.032.005.03.007.032.004.032.005.031.005.031.004.032.003.031.004.032.005.031.007.031.005.032.006.031.004.031.007.032.006.031.004.032.005.031.006.031.003.032.004.031.004.032.005.03.003.032.004.032.004h.031l.031.004.032.004.031.002.032.003.03.004.032.006.032.005.031.007.031.005.032.006.031.005.032.003.031.005.031.006.032.002.031.003.031.005.032.003.031.003.032.003.031.005.031.003.032.004.031.006.032.006.03.005.032.006.032.006.031.004.031.005.032.004.031.004.032.004.031.005.031.002.032.005.031.006.031.004.032.004.031.003.032.004.031.003.031.003.032.004.031.005.032.004.03.003.032.004.032.003.031.004.031.004.032.002.031.006.032.005.03.003.032.006.032.005.031.003.031.003.032.004.031.004.032.002.031.003.031.003.032.005.031.004.031.004.032.004.031.005.032.005h.031l.031.006.032.006.031.005.032.006.03.007.032.004.032.005.031.004.031.004.032.003.031.003.032.002.031.003.031.005.032.005.031.003.031.002.032.002.031.003h.032l.031.005.031.005.032.003.031.003.032.005.03.004.032.003.032.002.031.004.031.005.032.006.031.006.032.007.03.005.032.005.032.004.031.005.031.003.032.004.031.002.032.003h.062l.032.004.031.004h.063l.031.003.032.002.031.002.031.004.032.005.031.005.032.004.03.006.032.007.032.005.031.004.031.005.032.003.031.003.032.003.031.004.031.006.032.004.031.003.031.003.032.003h.031l.032.004.031.006.031.003.032.002.031.004.032.004.03.005.032.002.032.003.031.005.031.002.032.003.031.005.032.003.03.004.032.004.032.004.031.003h.031l.032.003.031.003.032.002h.062l.032.004.031.004.031.003.032.003.031.005.032.004.031.003.031.006.032.004.031.003.032.002.03.003.032.006.032.003.031.005.031.004.032.005.031.003.032.004.031.004.031.004.032.004h.031l.031.004.032.004.031.002.032.002.031.003h.031l.032.002.031.003.032.004.03.003h.032l.032.005.031.002.031.006.032.004.031.003.032.003.03.002.032.002.032.003.031.005.031.005.032.003.031.003.032.003.031.003.031.003.032.003.031.002h.063l.031.004.032.003.031.002.031.002.032.002.031.003.032.004.03.004.032.003.032.005.031.005.031.002.032.004.031.005.032.004.031.003.031.003.032.003h.031l.031.003.032.002h.031l.032.004.031.004.031.002.032.004.031.002.032.002.03.003.032.002.032.004h.031l.031.005.032.004.031.002h.032l.03.002h.064l.031.004.031.003.032.004.031.003.032.003.031.004.031.004.032.002.031.003.032.003.031.002.031.004.032.003.031.003.032.002.031.002.031.002.032.005.031.002.032.002.031.004.031.004h.063l.032.004.031.003.031.002.032.003.031.002.032.005.031.002.031.007.032.003h.031l.032.004.031.002.031.002h.063l.032.002.031.005.031.002h.032l.031.003.032.004.031.002.031.003.032.003.031.004.032.005.031.003.031.005h.032l.031.002h.063l.031.003.032.003.031.003.032.004.031.006.031.002.032.002.031.002.032.002.031.003.031.004h.063l.032.004.031.003.031.002.032.002.031.004.032.004.031.002h.031l.032.003.031.003.032.003.031.002.031.002h.032l.031.003.032.002.031.002.031.002h.032l.031.002.032.003.031.003.031.005.032.004.031.002h.032l.031-.001.031.002.032.003.031.003.032.003.031.003.031.002h.032l.031.004.032.002.031.004.031.005.032.003.031.004.032.003.031.003.031.002.032.002h.063l.031.004.031.002h.032l.031.004.032.003h.031l.031-.001h.032l.031.004.032.002.031.002.031.002h.095l.031.002h.031l.032.003h.031l.032.004.031.004.031.002.032.005.031.004.032.003h.031l.031.004.032.003.031.004.032.003.031.003.031.004.032.004.031.002.032.003.031.002.031.003.032.002.031.003.032.004.031.002.031-.001.032.003h.125l.032.003.031.002.032.003.031.002.031.002h.032l.031.002h.032l.031.003.031.003h.032l.031.003.032.002h.031l.031.002.032.004h.063l.031.003.031.003.032.003.031.004.032.003h.031l.031.003.032.002.031.003.032.003.031.004h.031l.032.004h.063l.031.005.031.003h.063l.032.004.031.003.031.002.032.003.031.002h.094l.032-.001.031-.002.032-.004" stroke-miterlimit="10" fill="none" stroke="#00f" stroke-width="2" paint-order="fill stroke markers"/><path d="M3.342 46.38l.031-.001.032-.002.031-.003.032-.003.03-.004.032-.004.032-.003.031-.004.031-.005.032-.004.031-.003.032-.001.03-.006.032-.003.032-.006.031-.002h.031l.032-.002.031-.005.032-.004.031-.004.031-.002.032-.002.031-.003.031-.004.032-.004.031-.003.032-.005.031-.003.031-.001.032-.005.031-.001.032-.004.03-.003.032-.003.032-.003.031-.006.031-.006.032-.005.031-.002.032-.002.03-.002.032-.004.032-.003.031-.003.031-.004.032-.002.031-.004.032-.002.031-.001.031-.003.032-.002.031-.003.031-.002.032-.005.031-.005.032-.001.031-.001.031-.004.032-.001.031-.002.031-.004.032-.002.031-.004.032-.002.031-.002.031-.002.032-.002.031-.002.032-.002.03-.002.032-.004h.032l.031-.002.031-.004h.032l.031-.003.032-.003.03-.003h.032l.032-.003.031-.005.031-.003.032-.003.031-.002.032-.002.031-.003.031-.001.032-.005h.031l.031-.003.032-.004.031-.002.032-.002h.062l.032-.003.031-.002.032-.001h.03l.032-.003.032-.004.031-.002h.031l.032-.003.031-.003h.062l.032-.001h.063l.031-.002h.063l.032.002.031-.002.031-.002.032-.001h.062l.032-.004.031-.004.032-.005.031-.002.031-.002h.032l.031-.001.032-.003h.03l.032-.002.032-.002.031-.003h.031l.032-.003h.157l.031-.002.031-.002h.032l.031-.002.032.002h.062l.032-.002h.031l.031.002h.063l.032-.001.031-.002.031-.003h.032l.031-.003h.032l.03-.002h.032l.032-.003h.062l.032-.002h.031l.032-.002h.062l.032.003.031-.002.031.002.032-.002.031-.002.032-.002h.031l.031-.002h.032l.031.002h.126l.031-.002h.156l.032-.001.032-.003.031.002.031-.002.032-.002h.063l.031-.001h.094l.031-.002.032-.002h.031l.032-.002h.094l.031-.002h.032l.03-.001.032-.001.032.002h.062l.032.005h.031l.032.002h.125l.031.003h.157l.032-.004h.031l.032-.001.03-.002.032.002h.063l.031-.002h.063l.032-.001.03-.002h.064l.031.003.031.003h.032l.031.002h.157l.031.004h.095l.031-.001h.063l.031-.003.032-.001.03.004h.032l.032.003h.094l.031.003.032.002h.062l.032.002.031.002h.031l.032.003h.031l.032.002h.031l.031.004.032.002.031.002.032.004h.03l.032.004h.032l.031.003h.126l.03-.002h.221l.031.002h.031l.032.002.031.002.031.002.032.002h.031l.032.003h.031l.031.002h.032l.031.005h.032l.03-.003h.095l.031-.001h.095l.031.002h.063l.031.002h.031l.032.003h.031l.032.002h.031l.031.004h.032l.031.003h.032l.03.005.032.005.032.002.031.002.031.002.032.003.031.002.032.002h.03l.032.003h.157l.032-.001h.031l.031.002.032.003.031-.001h.031l.032.003.031-.001.032.003.031.002.031.003h.032l.031.004.032.002h.03l.032.004h.032l.031.005.031.002.032.004h.031l.032.003.031.005.031.002.032-.001.031.003.031.003h.032l.031.003.032.002h.094l.031.003.032.002h.03l.032.002.032.002.031.002h.031l.032.004h.031l.032.004h.062l.032.004.031.003h.031l.032.002.031.003.032.006h.031l.031.004.032.003.031.002.031.003.032.003.031.003.032.002.031.004.031.004h.032l.031.003h.157l.031.003.032.002.031.003.032-.002.031.003.031.003.032.003.031.003.031.003.032.005.031.003.032.004.031.004.031.003.032.002h.063l.03.002h.032l.032.006.031.004.031.003.032.002h.031l.032.005.03.002h.032l.032.002.031.003.031.005h.032l.031.004.032.004.031.002.031.002.032.003.031.002.031.003.032.005.031.004.032.004.031.002h.031l.032.004h.063l.03.004h.032l.032.003.031.003h.031l.032.003.031.004.032.003.031.004.031.002.032.003.031.002.031.003.032.003.031.002.032.002.031.003.031.003h.032l.031.002.032.004.03.002.032.003h.032l.031.005.031.002.032.004.031.004.032.004h.03l.032.004h.032l.031.006.031.002.032.002.031.003.032.004h.031l.031.003h.032l.031.007H19l.032.003h.031l.032.006h.031l.031.007.032.002.031.004.032.003.03.005.032.005.032.003h.031l.031.006.032.002.031.003.032.002.031.004h.031l.032.002.031.003.031.004.032.004.031.004.032.005.031.004.031.004.032.005.031.003.032.004.03.002.032.002.032.004.031.002h.031l.032.005h.031l.032.005.03.003.032.002.032.007.031.004.031.006.032.005.031.005.032.004.031.005.031.003.032.004.031.003h.031l.032.005.031.002h.032l.031.004.031.004.032.005.031.006.032.004.03.003.032.008.032.004.031.006.031.003.032.002.031.004.032.004h.031l.031.004.032.003h.031l.031.006h.032l.031.004.032.004.031.004.031.005.032.005.031.003.032.005.03.005.032.005.032.005.031.003.031.003.032.006.031.006.032.004.03.005.032.003.032.003.031.004.031.003.032.005.031.002.032.003.031.004.031.002.032.004.031.003.031.003.032.005.031.004.032.006.031.005.031.007.032.007.031.002.032.003.03.003.032.004.032.003.031.003.031.004h.032l.031.003.032.004.031.004.031.004.032.003.031.006.031.005.032.005.031.005.032.005.031.007.031.005.032.003.031.006.032.004.03.006.032.003.032.006.031.004.031.005.032.006.031.005.032.006.03.002.032.004.032.005h.031l.031.003.032.004.031.004.032.004.031.003.031.005.032.006.031.006.031.005.032.005.031.007.032.004.031.005.031.003.032.002.031.004.032.002.03.002h.032l.032.003h.031l.031.006.032.003.031.003.032.005.031.007.031.006.032.005.031.006.031.008.032.007.031.006.032.006.031.007.031.006.032.007.031.005.032.004.03.005.032.007.032.006.031.005.031.003.032.006.031.006.032.005.03.005.032.003.032.005.031.004.031.004.032.005.031.008.032.005.031.006.031.005.032.006.031.005.031.007.032.007.031.004.032.008.031.005.031.009.032.005.031.006.032.004.03.002.032.007.032.006.031.005.031.007.032.006.031.002.032.006.031.005.031.008.032.006.031.007.031.005.032.007.031.007.032.004.031.007.031.006.032.006.031.005.032.005.03.008.032.007.032.003.031.007.031.005.032.006.031.007.032.006.03.007.032.006.032.006.031.005.031.007.032.005.031.004.032.006.031.006.031.007.032.003.031.004.031.005.032.007.031.005.032.006.031.005.031.008.032.007.031.009.032.006.03.007.032.008.032.008.031.006.031.005.032.008.031.009.032.006.031.005.031.006.032.005.031.007.031.007.032.006.031.004.032.008.031.01.031.005.032.006.031.006.032.01.03.006.032.006.032.005.031.008.031.007.032.006.031.005.032.007.03.007.032.005.032.008.031.008.031.006.032.005.031.009.032.006.031.006.031.008.032.01.031.007.031.006.032.007.031.007.032.008.031.008.031.01.032.006.031.007.032.008.03.01.032.008.032.008.031.005.031.007.032.008.031.005.032.005.031.007.031.007.032.005.031.008.031.008.032.006.031.008.032.008.031.008.031.008.032.007.031.01.032.01.03.009.032.009.032.007.031.01.031.007.032.006.031.007.032.009.03.005.032.008.032.006.031.005.031.006.032.007.031.005.032.009.031.007.031.008.032.01.031.01.031.009.032.01.031.01.032.01.031.01.031.009.032.01.031.009.032.008.03.01.032.008.032.009.031.008.031.007.032.008.031.009.032.007.031.008.031.01.032.007.031.01.031.009.032.007.031.01.032.008.031.008.031.01.032.009.031.01.032.01.03.01.032.009.032.01.031.007.031.008.032.009.031.008.032.01.03.012.032.01.032.01.031.01.031.007.032.01.031.01.032.009.031.01.031.012.032.01.031.01.031.01.032.007.031.01.032.007.031.01.031.01.032.013.031.012.032.01.03.01.032.01.032.01.031.008.031.01.032.007.031.01.032.012.031.006.031.007.032.009.031.007.031.008.032.01.031.01.032.012.031.014.031.01.032.013.031.01.032.012.03.013.032.01.032.01.031.015.031.01.032.013.031.012.032.008.03.01.032.013.032.01.031.01.031.015.032.01.031.012.032.012.031.01.031.01.032.013.031.01.031.014.032.01.031.013.032.013.031.01.031.01.032.012.031.01.032.013.03.012.032.01.032.012.031.013.031.01.032.014.031.012.032.012.031.012.031.015.032.012.031.016.031.01.032.012.031.012.032.01.031.014.031.013.032.013.031.015.032.012.03.012.032.013.032.013.031.01.031.012.032.01.031.013.032.013.03.014.032.012.032.014.031.01.031.013.032.014.031.013.032.013.031.013.031.015.032.013.031.013.031.014.032.015.031.013.032.013.031.014.031.013.032.015.031.015.032.014.03.014.032.015.032.013.031.012.031.012.032.01.031.014.032.015.031.015.031.014.032.014.031.014.031.014.032.012.031.015.032.012.031.015.031.015.032.015.031.015.032.014.03.016.032.015.032.015.031.013.031.016.032.017.031.015.032.014.03.015.032.015.032.016.031.016.031.015.032.015.031.016.032.017.031.016.031.02.032.014.031.015.031.016.032.013.031.015.032.015.031.017.031.016.032.015.031.016.032.018.03.017.032.02.032.016.031.017.031.017.032.017.031.016.032.017.031.017.031.013.032.016.031.015.031.017.032.016.031.018.032.017.031.015.031.016.032.017.031.019.032.017.03.019.032.016.032.02.031.017.031.017.032.017.031.015.032.018.03.018.032.02.032.017.031.017.031.017.032.018.031.017.032.018.031.019.031.019.032.02.031.02.031.018.032.017.031.02.032.02.031.018.031.019.032.018.031.02.032.02.03.02.032.02.032.017.031.02.031.018.032.02.031.02.032.02.031.02.031.02.032.02.031.02.031.02.032.024.031.018.032.018.031.019.031.02.032.022.031.02.032.022.03.02.032.02.032.023.031.02.031.025.032.02.031.025.032.022.03.023.032.02.032.02.031.02.031.02.032.018.031.02.032.02.031.023.031.02.032.023.031.02.031.02.032.023.031.023.032.02.031.024.031.02.032.023.031.02.032.02.03.02.032.02.032.023.031.022.031.025.032.022.031.024.032.023.031.023.031.022.032.024.031.023.031.024.032.023.031.023.032.025.031.024.031.023.032.023.031.026.032.025.03.023.032.024.032.024.031.025.031.023.032.025.031.024.032.025.03.025.032.027.032.023.031.026.031.026.032.027.031.026.032.026.031.025.031.025.032.024.031.023.031.025.032.024.031.024.032.026.031.022.031.025.032.025.031.026.032.026.03.027.032.027.032.028.031.027.031.026.032.028.031.028.032.024.031.025.031.026.032.025.031.025.031.026.032.024.031.025.032.025.031.025.031.027.032.026.031.028.032.028.03.026.032.028.032.028.031.028.031.028.032.024.031.025.032.028.03.027.032.025.032.03.031.03.031.03.032.028.031.03.032.028.031.03.031.029.032.029.031.027.031.026.032.027.031.03.032.027.031.026.031.028.032.03.031.027.032.03.03.028.032.03.032.03.031.029.031.028.032.03.031.027.032.027.031.028.031.028.032.028.031.027.031.03.032.03.031.028.032.028.031.03.031.03.032.03.031.028.032.029.03.028.032.03.032.03.031.027.031.027.032.028.031.027.032.028.03.03.032.03.032.03.031.027.031.032.032.028.031.027.032.03.031.027.031.028.032.029.031.03.031.03.032.03.031.029.032.026.031.03.031.03.032.03.031.03.032.03.03.029.032.03.032.03.031.03.031.027.032.028.031.028.032.027.031.029.031.029.032.028.031.029.031.03.032.029.031.028.032.03.031.029.031.028.032.027.031.03.032.025.03.028.032.028.032.026.031.027.031.026.032.027.031.027.032.026.03.028.032.027.032.026.031.028.031.027.032.028.031.027.032.025.031.028.031.026.032.028.031.024.031.027.032.024.031.027.032.027.031.024.031.027.032.027.031.024.032.024.03.024.032.024.032.026.031.023.031.024.032.02.031.025.032.025.031.026.031.025.032.022.031.024.031.022.032.023.031.024.032.022.031.022.031.022.032.02.031.02.032.02.03.023.032.02.032.02.031.02.031.022.032.025.031.022.032.022.03.02.032.02.032.02.031.02.031.019.032.02.031.017.032.016.031.015.031.017.032.016.031.019.031.015.032.018.031.017.032.016.031.018.031.018.032.013.031.016.032.014.03.014.032.014.032.014.031.012.031.01.032.01.031.01.032.012.031.012.031.013.032.012.031.01.031.013.032.01.031.007.032.007.031.008.031.006.032.008.031.008.032.005.03.008.032.006.032.004.031.003.031.006.032.006.031.006.032.005.03.005.032.004.032.003.031.002h.031l.032.002.031.003.032.004h.031l.031.003.032.003h.062l.032-.001.031-.004.032-.003.031-.004.031-.003.032-.006.031-.005.032-.007.03-.008.032-.007.032-.007.031-.004.031-.006.032-.005.031-.01.032-.007.031-.007.031-.01.032-.011.031-.01.031-.013.032-.012.031-.016.032-.013.031-.013.031-.015.032-.013.031-.018.032-.014.03-.015.032-.016.032-.014.031-.02.031-.016.032-.02.031-.02.032-.02.03-.022.032-.022.032-.021.031-.026.031-.023.032-.024.031-.021.032-.026.031-.023.031-.025.032-.028.031-.025.031-.026.032-.027.031-.028.032-.031.031-.03.031-.03.032-.035.031-.034.032-.035.03-.032.032-.034.032-.038.031-.034.031-.033.032-.035.031-.036.032-.035.031-.038.031-.038.032-.036.031-.037.031-.04.032-.04.031-.042.032-.044.031-.04.031-.042.032-.043.031-.04.032-.044.03-.043.032-.046.032-.043.031-.045.031-.047.032-.05.031-.047.032-.048.03-.048.032-.05.032-.053.031-.053.031-.053.032-.056.031-.052.032-.053.031-.056.031-.056.032-.054.031-.057.031-.057.032-.057.031-.058.032-.06.031-.058.031-.061.032-.058.031-.062.032-.058.03-.063.032-.063.032-.061.031-.063.031-.063.032-.063.031-.065.032-.062.031-.065.031-.065.032-.064.031-.066.031-.066.032-.066.031-.068.032-.068.031-.068.031-.065.032-.068.031-.066.032-.071.03-.068.032-.07.032-.073.031-.073.031-.075.032-.072.031-.075.032-.076.03-.076.032-.075.032-.077.031-.075.031-.075.032-.076.031-.076.032-.074.031-.075.031-.077.032-.078.031-.08.031-.077.032-.08.031-.08.032-.08.031-.081.031-.081.032-.082.031-.081.032-.08.03-.082.032-.08.032-.082.031-.084.031-.083.032-.083.031-.084.032-.083.031-.086.031-.084.032-.085.031-.084.031-.085.032-.086.031-.087.032-.085.031-.084.031-.085.032-.084.031-.085.032-.088.03-.085.032-.091.032-.088.031-.088.031-.088.032-.09.031-.087.032-.09.03-.087.032-.09.032-.086.031-.088.031-.087.032-.087.031-.087.032-.087.031-.088.031-.084.032-.088.031-.09.031-.092.032-.09.031-.09.032-.09.031-.09.031-.09.032-.09.031-.088.032-.09.03-.087.032-.09.032-.09.031-.09.031-.09.032-.09.031-.087.032-.09.031-.088.031-.092.032-.09.031-.09.031-.086.032-.087.031-.086.032-.09.031-.088.031-.088.032-.088.031-.09.032-.09.03-.091.032-.09.032-.09.031-.09.031-.09.032-.09.031-.088.032-.088.03-.09.032-.086.032-.088.031-.086.031-.087.032-.086.031-.088.032-.084.031-.084.031-.084.032-.085.031-.083.031-.085.032-.084.031-.085.032-.086.031-.082.031-.085.032-.084.031-.084.032-.086.03-.085.032-.087.032-.085.031-.084.031-.081.032-.084.031-.08.032-.082.031-.083.031-.082.032-.083.031-.083.031-.08.032-.08.031-.08.032-.08.031-.08.031-.08.032-.08.031-.077.032-.083.03-.08.032-.077.032-.08.031-.08.031-.08.032-.077.031-.075.032-.077.03-.077.032-.076.032-.076.031-.072.031-.075.032-.074.031-.073.032-.073.031-.074.031-.074.032-.074.031-.076.031-.071.032-.076.031-.074.032-.072.031-.072.031-.071.032-.07.031-.073.032-.074.03-.07.032-.072.032-.067.031-.072.031-.068.032-.07.031-.071.032-.072.031-.068.031-.07.032-.065.031-.068.031-.07.032-.063.031-.066.032-.065.031-.066.031-.065.032-.068.031-.065.032-.062.03-.066.032-.065.032-.066.031-.064.031-.065.032-.064.031-.062.032-.062.03-.062.032-.06.032-.064.031-.06.031-.06.032-.06.031-.058.032-.06.031-.06.031-.058.032-.056.031-.058.031-.06.032-.058.031-.056.032-.057.031-.056.031-.056.032-.058.031-.057.032-.055.03-.055.032-.057.032-.052.031-.056.031-.057.032-.054.031-.054.032-.052.031-.052.031-.05.032-.052.031-.052.031-.052.032-.05.031-.053.032-.051.031-.052.031-.054.032-.05.031-.05.032-.051.03-.052.032-.05.032-.05.031-.05.031-.045.032-.046.031-.044.032-.044.03-.044.032-.047.032-.045.031-.042.031-.044.032-.044.031-.045.032-.047.031-.046.031-.044.032-.044.031-.043.031-.046.032-.044.031-.044.032-.043.031-.04.031-.042.032-.042.031-.041.032-.043.03-.042.032-.04.032-.04.031-.042.031-.04.032-.04.031-.04.032-.04.031-.037.031-.037.032-.038.031-.041.031-.037.032-.037.031-.036.032-.037.031-.04.031-.036.032-.037.031-.037.032-.037.03-.036.032-.035.032-.033.031-.033.031-.035.032-.035.031-.035.032-.03.03-.033.032-.036.032-.034.031-.03.031-.032.032-.034.031-.032.032-.035.031-.032.031-.03.032-.036.031-.032.031-.033.032-.032.031-.03.032-.033.031-.031.031-.03.032-.031.031-.03.032-.03.03-.032.032-.026.032-.026.031-.03.031-.03.032-.027.031-.028.032-.028.031-.028.031-.03.032-.026.031-.028.031-.026.032-.027.031-.026.032-.026.031-.025.031-.027.032-.024.031-.024.032-.025.03-.023.032-.027.032-.027.031-.026.031-.025.032-.024.031-.03.032-.026.03-.024.032-.026.032-.025.031-.024.031-.022.032-.022.031-.025.032-.022.031-.024.031-.018.032-.022.031-.021.031-.022.032-.023.031-.021.032-.02.031-.022.031-.021.032-.023.031-.02.032-.02.03-.02.032-.021.032-.02.031-.02.031-.023.032-.023.031-.02.032-.02.031-.02.031-.02.032-.02.031-.02.031-.02.032-.016.031-.016.032-.017.031-.02.031-.016.032-.02.031-.017.032-.018.03-.02.032-.017.032-.02.031-.02.031-.021.032-.018.031-.02.032-.02.03-.018.032-.02.032-.015.031-.016.031-.015.032-.016.031-.013.032-.017.031-.015.031-.016.032-.015.031-.014.031-.016.032-.016.031-.015.032-.015.031-.018.031-.015.032-.02.031-.017.032-.015.03-.015.032-.013.032-.016.031-.016.031-.012.032-.014.031-.014.032-.016.031-.014.031-.014.032-.015.031-.016.031-.013.032-.013.031-.014.032-.012.031-.015.031-.014.032-.014.031-.014.032-.014.03-.01.032-.014.032-.015.031-.011.031-.015.032-.013.031-.015.032-.013.03-.016.032-.015.032-.012.031-.011.031-.015.032-.012.031-.012.032-.013.031-.014.031-.013.032-.011.031-.012.031-.011.032-.013.031-.012.032-.008.031-.013.031-.014.032-.012.031-.01.032-.013.03-.01.032-.01.032-.01.031-.012.031-.008.032-.01.031-.013.032-.012.031-.01.031-.012.032-.01.031-.01.031-.01.032-.008.031-.012.032-.013.031-.012.031-.01.032-.011.031-.01.032-.01.03-.012.032-.01.032-.01.031-.008.031-.011.032-.012.031-.01.032-.01.03-.01.032-.007.032-.01.031-.01.031-.01.032-.012.031-.008.032-.01.031-.01.031-.008.032-.01.031-.012.031-.01.032-.007.031-.01.032-.007.031-.01.031-.01.032-.008.031-.007.032-.008.03-.01.032-.006.032-.007.031-.01.031-.007.032-.006.031-.01.032-.01.031-.007.031-.01.032-.01.031-.01.031-.008.032-.01.031-.007.032-.01.031-.008.031-.01.032-.008.031-.008.032-.007.03-.007.032-.007.032-.007.031-.007.031-.006.032-.008.031-.01.032-.007.03-.007.032-.008.032-.006.031-.008.031-.01.032-.007.031-.01.032-.008.031-.01.031-.01.032-.01.031-.008.031-.01.032-.008.031-.008.032-.01.031-.006.031-.01.032-.006.031-.008.032-.005.03-.006.032-.005.032-.006.031-.008.031-.007.032-.008.031-.008.032-.01.031-.005.031-.007.032-.006.031-.01.031-.006.032-.007.031-.006.032-.006.031-.006.031-.008.032-.005.031-.003.032-.005.03-.006.032-.008.032-.01.031-.008.031-.007.032-.01.031-.008.032-.007.03-.01.032-.005.032-.007.031-.006.031-.008.032-.007.031-.006.032-.004.031-.007.031-.004.032-.008.031-.007.031-.01.032-.006.031-.008.032-.006.031-.007.031-.006.032-.006.031-.006.032-.005.03-.003.032-.006.032-.006.031-.006.031-.003.032-.005.031-.004.032-.008.031-.01.031-.007.032-.007.031-.008.031-.006.032-.008.031-.007.032-.008.031-.006.031-.008.032-.005.031-.007.032-.006.03-.005.032-.005.032-.005.031-.005.031-.005.032-.007.031-.008.032-.007.03-.006.032-.007.032-.006.031-.007.031-.006.032-.005.031-.006.032-.005.031-.006.031-.004.032-.006.031-.004.031-.005.032-.003.031-.007.032-.008.031-.006.031-.007.032-.006.031-.006.032-.006.03-.006.032-.005.032-.008.031-.006.031-.004.032-.007.031-.004.032-.006.031-.005.031-.007.032-.005.031-.005.031-.006.032-.008.031-.007.032-.003.031-.005.031-.005.032-.006.031-.005.032-.005.03-.004.032-.007.032-.004.031-.005.031-.006.032-.005.031-.008.032-.008.03-.007.032-.006.032-.005.031-.005.031-.006.032-.005.031-.003.032-.006.031-.005.031-.006.032-.005.031-.006.031-.005.032-.008.031-.004.032-.01.031-.008.031-.006.032-.008.031-.007.032-.005.03-.005.032-.004.032-.002.031-.006.031-.003.032-.004.031-.005.032-.005.031-.006.031-.005.032-.003.031-.006.031-.006.032-.005.031-.006.032-.006.031-.004.031-.007.032-.006.031-.006.032-.003.03-.005.032-.003.032-.006.031-.005.031-.005.032-.007.031-.005.032-.005.03-.005.032-.006.032-.006.031-.005.031-.004.032-.004.031-.006.032-.004.031-.006.031-.005.032-.006.031-.003.031-.007.032-.004.031-.007.032-.005.031-.007.031-.007.032-.005.031-.006.032-.007.03-.007.032-.006.032-.003.031-.004.031-.005.032-.002.031-.004.032-.007.031-.005.031-.005.032-.003.031-.004.031-.005.032-.005.031-.005.032-.006.031-.005.031-.005.032-.006.031-.005.032-.003.03-.005.032-.004.032-.006.031-.004.031-.005.032-.008.031-.007.032-.005.03-.008.032-.008.032-.005.031-.008.031-.007.032-.006.031-.005.032-.008.031-.005.031-.006.032-.003.031-.005.031-.006.032-.003.031-.003.032-.003.031-.007.031-.004.032-.005.031-.004.032-.005.03-.005.032-.001.032-.007.031-.003.031-.004.032-.005.031-.007.032-.004.031-.007.031-.003.032-.006.031-.004.031-.001.032-.004.031-.006.032-.007.031-.004.031-.005.032-.007.031-.005.032-.008.03-.006.032-.008.032-.006.031-.007.031-.005.032-.005.031-.006.032-.005.03-.004.032-.006.032-.003.031-.002.031-.004.032-.004.031-.006.032-.005.031-.005.031-.006.032-.005.031-.007.031-.005.032-.006.031-.006.032-.003.031-.005.031-.006.032-.004.031-.004.032-.003.03-.006.032-.003.032-.004.031-.006.031-.007.032-.006.031-.002.032-.004.031-.006.031-.005.032-.004.031-.01.031-.004.032-.007.031-.005.032-.005.031-.004.031-.005.032-.005.031-.004.032-.005.03-.005.032-.007.032-.006.031-.005.031-.004.032-.003.031-.006.032-.006.03-.006.032-.005.032-.007.031-.004.031-.006.032-.003.031-.005.032-.005.031-.006.031-.004.032-.005.031-.005.031-.006.032-.005.031-.007.032-.004.031-.005.031-.004.032-.007.031-.004.032-.005.03-.005.032-.005.032-.005.031-.003.031-.005.032-.004.031-.005.032-.004.031-.006.031-.004.032-.004.031-.007.031-.005.032-.007.031-.006.032-.004.031-.005.031-.007.032-.003.031-.007.032-.008.03-.006.032-.005.032-.005.031-.008.031-.004.032-.007.031-.005.032-.004.03-.004.032-.006.032-.006.031-.006.031-.005.032-.002.031-.002.032-.005.031-.004.031-.005.032-.006.031-.007.031-.006.032-.007.031-.008.032-.01.031-.005.031-.007.032-.006.031-.005.032-.007.03-.008.032-.006.032-.006.031-.004.031-.002.032-.005.031-.004.032-.003.031-.005.031-.003.032-.01.031-.006.031-.004.032-.005.031-.002.032-.002.031-.004.031-.003.032-.006.031-.006.032-.005.03-.003.032-.005.032-.006.031-.006.031-.007.032-.005.031-.006.032-.01.03-.006.032-.01.032-.006.031-.005.031-.003.032-.002.031-.003.032-.006.031-.006.031-.007.032-.006.031-.005.031-.006.032-.006.031-.006.032-.004.031-.004.031-.004.032-.007.031-.005.032-.006.03-.007.032-.006.032-.007.031-.005.031-.006.032-.007.031-.01.032-.006.031-.004.031-.004.032-.003.031-.005.031-.002.032-.003.031-.002.032-.004.031-.004.031-.004.032-.002.031-.006.032-.007.03-.008.032-.007.032-.006.031-.006.031-.007.032-.005.031-.005.032-.002.03-.004.032-.006.032-.006.031-.006.031-.006.032-.007.031-.008.032-.007.031-.004.031-.006.032-.008.031-.008.031-.004.032-.003.031-.005.032-.005.031-.006.031-.005.032-.005.031-.003.032-.006.03-.007.032-.005.032-.007.031-.008.031-.007.032-.007.031-.003.032-.003.031-.005.031-.002.032-.006.031-.004.031-.006.032-.006.031-.005.032-.01.031-.005.031-.008.032-.005.031-.008.032-.006.03-.005.032-.006.032-.005.031-.004.031-.003.032-.004.031-.007.032-.005.03-.005.032-.008.032-.006.031-.008.031-.004.032-.006.031-.007.032-.007.031-.007.031-.004.032-.006.031-.004.031-.004.032-.005.031-.006.032-.006.031-.01.031-.005.032-.006.031-.005.032-.008.03-.003.032-.008.032-.005.031-.003.031-.005.032-.006.031-.005.032-.003.031-.005.031-.005.032-.005.031-.006.031-.007.032-.008.031-.007.032-.005.031-.004.031-.007.032-.005.031-.005.032-.004.03-.007.032-.005.032-.006.031-.007.031-.007.032-.006.031-.006.032-.008.03-.006.032-.008.032-.007.031-.007.031-.006.032-.005.031-.005.032-.007.031-.003.031-.004.032-.004.031-.005.031-.006.032-.007.031-.006.032-.006.031-.008.031-.006.032-.007.031-.007.032-.006.03-.005.032-.003.032-.005.031-.005.031-.007.032-.007.031-.005.032-.004.031-.007.031-.007.032-.005.031-.006.031-.005.032-.005.031-.007.032-.007.031-.008.031-.006.032-.007.031-.005.032-.004.03-.004.032-.007.032-.007.031-.008.031-.006.032-.01.031-.006.032-.007.03-.007.032-.004.032-.007.031-.007.031-.01.032-.01.031-.006.032-.01.031-.005.031-.007.032-.005.031-.006.031-.005.032-.007.031-.005.032-.004.031-.004.031-.003.032-.004.031-.003.032-.004.03-.004.032-.006.032-.006.031-.007.031-.004.032-.005.031-.005.032-.006.031-.006.031-.008.032-.008.031-.007.031-.008.032-.004.031-.005.032-.006.031-.007.031-.006.032-.004.031-.005.032-.007.03-.006.032-.006.032-.005.031-.005.031-.006.032-.007.031-.008.032-.008.03-.01.032-.006.032-.006.031-.008.031-.005.032-.008.031-.007.032-.005.031-.005.031-.006.032-.006.031-.006.031-.005.032-.005.031-.006.032-.008.031-.007.031-.007.032-.006.031-.007.032-.007.03-.006.032-.006.032-.006.031-.008.031-.006.032-.007.031-.007.032-.008.031-.005.031-.005.032-.006.031-.006.031-.006.032-.004.031-.008.032-.007.031-.008.031-.007.032-.006.031-.01.032-.008.03-.008.032-.008.032-.01.031-.005.031-.008.032-.008.031-.005.032-.005.03-.006.032-.006.032-.005.031-.004.031-.005.032-.01.031-.005.032-.007.031-.006.031-.01.032-.007.031-.007.031-.006.032-.008.031-.008.032-.006.031-.005.031-.008.032-.005.031-.007.032-.006.03-.006.032-.006.032-.005.031-.007.031-.006.032-.007.031-.008.032-.01.031-.01.031-.005.032-.01.031-.007.031-.01.032-.008.031-.008.032-.006.031-.007.031-.008.032-.008.031-.004.032-.007.03-.005.032-.007.032-.008.031-.005.031-.008.032-.008.031-.008.032-.007.03-.007.032-.008.032-.01.031-.006.031-.008.032-.006.031-.005.032-.007.031-.007.031-.006.032-.006.031-.008.031-.005.032-.008.031-.005.032-.006.031-.007.031-.006.032-.01.031-.01.032-.006.03-.01.032-.008.032-.005.031-.01.031-.007.032-.008.031-.008.032-.008.031-.008.031-.008.032-.007.031-.008.031-.006.032-.005.031-.006.032-.008.031-.008.031-.01.032-.006.031-.007.032-.008.03-.007.032-.007.032-.01.031-.007.031-.01.032-.01.031-.01.032-.005.03-.01.032-.01.032-.007.031-.004.031-.006.032-.008.031-.008.032-.008.031-.008.031-.007.032-.005.031-.007.032-.008.031-.01.031-.007.032-.007.031-.008.032-.008.031-.007.031-.004.032-.01.031-.006.032-.007.031-.005.031-.01.032-.008.031-.01.032-.01.031-.007.031-.007.032-.006.031-.008.032-.01.031-.008.031-.006.032-.01.031-.01.032-.006.031-.007.031-.006.032-.008.031-.01.032-.01.031-.01.031-.01.032-.01.031-.007.032-.008.031-.006.031-.007.032-.01.031-.006.032-.01.031-.008.031-.008.032-.012.031-.01.032-.006.031-.008.031-.007.032-.01.031-.01.032-.01.031-.01.031-.007.032-.01.031-.007.032-.01.031-.005.031-.01.032-.006.031-.01.032-.007.031-.01.031-.008.032-.007.031-.01.032-.007.031-.01.031-.01.032-.008.031-.012.032-.01.031-.01.031-.01.032-.01.031-.006.032-.01.031-.007.031-.01.032-.006.031-.01.032-.006.031-.01.031-.01.032-.007.031-.011.032-.01.031-.01.031-.006.032-.008.031-.01.032-.01.031-.01.031-.01.032-.01.031-.007.032-.012.031-.008.031-.01.032-.011.031-.01.032-.01.031-.01.031-.01.032-.008.031-.01.032-.008.031-.008.031-.01.032-.01.031-.01.032-.01.031-.01.031-.01.032-.01.031-.01.032-.011.031-.01.031-.01.032-.012.031-.01.032-.01.031-.012.031-.011.032-.01.031-.012.032-.01.031-.01.031-.01.032-.007.031-.01.032-.01.031-.01.031-.01.032-.012.031-.011.032-.01.031-.01.031-.011.032-.012.031-.013.032-.011.031-.013.031-.01.032-.012.031-.012.032-.01.031-.013.031-.01.032-.01.031-.014.032-.012.031-.012.031-.01.032-.013.031-.011.032-.012.031-.011.031-.014.032-.014.031-.012.032-.011.031-.012.031-.01.032-.015.031-.01.032-.013.031-.014.031-.013.032-.01.031-.014.032-.012.031-.012.031-.013.032-.016.031-.014.032-.015.031-.014.031-.013.032-.016.031-.015.032-.015.031-.017.031-.016.032-.017.031-.02.032-.018.031-.02.031-.018.032-.018.031-.016.032-.014.031-.018.031-.02.032-.02.031-.023.032-.026.031-.03.031-.034.032-.038.031-.043.032-.048" stroke-miterlimit="10" fill="none" stroke="red" stroke-width="2" paint-order="fill stroke markers"/><text style="line-height:1.25;-inkscape-font-specification:'sans-serif, Normal';font-variant-ligatures:normal;font-variant-caps:normal;font-variant-numeric:normal;font-feature-settings:normal;text-align:start" x="118.272" y="35.818" font-weight="400" font-size="33.333" letter-spacing="0" word-spacing="0" font-family="sans-serif" fill="#00f"><tspan x="118.272" y="35.818">Voltammetry</tspan></text><text style="line-height:1.25" x="118.272" y="60.103" font-weight="400" font-size="40" letter-spacing="0" word-spacing="0" font-family="sans-serif" fill="red"><tspan x="118.272" y="60.103" style="-inkscape-font-specification:'sans-serif, Normal';font-variant-ligatures:normal;font-variant-caps:normal;font-variant-numeric:normal;font-feature-settings:normal;text-align:start" font-size="30.667">Center</tspan></text><path fill="#fff" d="M342.873-8.54h29.891v83.621h-29.891z"/></svg>